<?xml version="1.0" standalone="no"?>
<!DOCTYPE svg PUBLIC "-//W3C//DTD SVG 20010904//EN"
 "http://www.w3.org/TR/2001/REC-SVG-20010904/DTD/svg10.dtd">
<svg version="1.0" xmlns="http://www.w3.org/2000/svg"
 width="1920.000000pt" height="1920.000000pt" viewBox="0 0 1920.000000 1920.000000"
 preserveAspectRatio="xMidYMid meet">
<metadata>
Created by potrace 1.14, written by Peter Selinger 2001-2017
</metadata>
<g transform="translate(0.000000,1920.000000) scale(0.100000,-0.100000)"
fill="#000000" stroke="none">
<path d="M6908 19129 c-6 -15 -387 -592 -459 -694 -102 -146 -386 -514 -419
-545 -3 -3 -24 -27 -45 -55 -43 -54 -62 -76 -95 -115 -12 -14 -40 -47 -63 -74
-23 -27 -51 -59 -62 -70 -11 -12 -35 -39 -54 -61 -89 -104 -282 -314 -436
-473 -122 -127 -413 -416 -451 -449 -12 -10 -64 -57 -116 -105 -52 -48 -107
-97 -123 -110 -16 -12 -40 -33 -54 -46 -46 -43 -264 -208 -336 -254 -38 -25
-141 -80 -227 -121 -312 -151 -478 -287 -507 -415 -20 -93 37 -169 178 -234
80 -37 256 -89 351 -103 141 -21 288 -45 310 -50 14 -3 39 -8 55 -11 190 -34
417 -123 563 -221 295 -198 481 -530 587 -1048 31 -151 49 -262 60 -365 3 -30
8 -66 10 -80 5 -30 13 -105 20 -180 2 -30 6 -77 9 -105 3 -27 7 -93 11 -145 3
-52 8 -124 10 -160 4 -62 10 -178 20 -445 8 -209 20 -739 32 -1345 9 -464 9
-2608 0 -2980 -13 -571 -30 -1086 -42 -1265 -2 -38 -7 -137 -10 -220 -4 -82
-8 -166 -10 -185 -2 -19 -6 -82 -10 -140 -3 -58 -8 -125 -10 -150 -2 -25 -7
-87 -10 -138 -4 -52 -8 -101 -10 -110 -1 -10 -6 -55 -9 -102 -4 -47 -9 -96
-11 -110 -3 -14 -7 -47 -10 -75 -15 -143 -52 -364 -76 -459 -31 -122 -63 -176
-105 -176 -48 0 -184 -68 -273 -137 -9 -7 -42 -32 -74 -57 -32 -24 -97 -79
-145 -123 -517 -468 -1135 -1257 -1397 -1783 -82 -164 -107 -221 -153 -350
-58 -163 -80 -265 -80 -378 0 -85 12 -122 51 -160 58 -56 188 -25 347 82 41
28 80 55 87 61 7 5 18 15 25 20 97 79 354 243 473 302 68 34 231 100 266 107
13 3 42 10 64 15 185 45 410 47 640 6 228 -41 577 -146 750 -226 28 -13 52
-24 55 -24 3 0 64 -30 135 -66 504 -253 1039 -616 1520 -1032 122 -106 398
-388 476 -487 95 -121 127 -172 182 -290 70 -151 133 -224 247 -284 204 -109
444 -73 607 89 52 52 72 84 126 196 71 146 163 289 320 499 56 74 104 137 107
140 3 3 30 37 60 75 94 121 449 546 535 641 5 6 35 40 65 75 30 35 78 89 105
119 28 31 86 96 130 145 44 49 101 112 126 140 121 130 191 206 269 289 102
110 633 640 897 896 293 285 385 430 352 555 -13 48 -35 76 -92 120 -89 68
-202 78 -353 29 -87 -28 -113 -40 -344 -162 -310 -164 -431 -160 -679 25 -75
56 -92 70 -139 111 -15 13 -61 51 -102 85 -41 34 -77 64 -80 67 -15 17 -240
177 -325 232 -327 210 -474 283 -875 434 l-275 103 2 403 c1 222 5 698 8 1058
3 360 7 957 10 1325 14 2003 28 2943 50 3440 2 55 7 159 10 230 3 72 7 162 10
200 13 208 16 255 20 305 3 30 7 89 10 130 3 41 8 86 10 100 2 14 6 54 10 90
16 146 23 202 45 330 5 30 12 69 14 85 26 154 88 372 150 535 40 102 137 294
186 367 17 24 30 46 30 49 0 4 51 79 148 219 87 125 388 522 468 616 118 140
167 191 244 254 89 72 142 98 205 98 91 0 149 -47 255 -203 78 -113 184 -222
312 -317 86 -65 243 -170 278 -186 8 -4 38 -21 65 -37 83 -50 350 -179 470
-227 166 -67 468 -165 552 -179 15 -2 51 -9 78 -14 304 -58 588 -35 935 75
460 147 894 422 1296 820 289 286 502 567 697 919 106 192 233 492 283 671 8
28 46 172 49 185 49 208 63 319 63 507 0 214 -30 331 -105 414 -114 126 -291
88 -518 -111 -185 -162 -411 -272 -615 -298 -90 -12 -320 -8 -390 7 -246 51
-481 181 -605 336 -134 167 -307 447 -414 668 -32 67 -96 217 -142 332 -233
593 -418 810 -611 717 -78 -38 -167 -143 -239 -282 -21 -41 -52 -97 -69 -125
-16 -27 -47 -79 -67 -113 -21 -35 -45 -75 -53 -88 -127 -202 -265 -409 -388
-584 -110 -156 -196 -269 -442 -585 -218 -279 -460 -626 -651 -930 -249 -397
-525 -766 -833 -1115 -392 -444 -629 -572 -770 -417 -64 72 -113 221 -136 417
-9 81 -13 134 -25 335 -8 140 -18 210 -51 365 -34 157 -75 305 -139 495 -49
146 -132 371 -155 420 -5 11 -30 70 -56 130 -83 197 -217 475 -326 674 -37 69
-68 129 -68 133 0 4 -4 8 -10 8 -5 0 -10 5 -10 10 0 6 -18 40 -40 76 -22 36
-40 68 -40 70 0 3 -9 17 -19 32 -10 15 -58 86 -105 159 -72 110 -226 325 -246
343 -3 3 -25 30 -50 60 -25 30 -58 68 -75 86 -16 17 -63 67 -104 110 -150 160
-358 381 -417 443 -42 44 -62 59 -66 50z"/>
</g>
</svg>
